<svg width="500" height="500" viewBox="0 0 500 500" fill="none" xmlns="http://www.w3.org/2000/svg">
<path d="M446.74 113.18C432.748 93.4275 414.995 76.63 394.5 63.75C324.55 20.47 229.58 30.46 166 81C127 112 83 108 49 142C15 176 17 231 32 265C43.72 291.57 69.11 300.77 95.62 306.39C125.68 312.76 149.76 319.59 175.02 337.83C204.26 358.94 234.19 380.37 268.63 392.03C302.69 403.56 334.4 402.61 361.88 378.25C384.7 358 400.44 330.21 426 313C498.5 264.2 491.52 175.79 446.74 113.18Z" fill="#20BAAA"/>
<path opacity="0.7" d="M446.74 113.18C432.748 93.4275 414.995 76.63 394.5 63.75C324.55 20.47 229.58 30.46 166 81C127 112 83 108 49 142C15 176 17 231 32 265C43.72 291.57 69.11 300.77 95.62 306.39C125.68 312.76 149.76 319.59 175.02 337.83C204.26 358.94 234.19 380.37 268.63 392.03C302.69 403.56 334.4 402.61 361.88 378.25C384.7 358 400.44 330.21 426 313C498.5 264.2 491.52 175.79 446.74 113.18Z" fill="white"/>
<path d="M35.81 374.11C38.34 375.22 44.51 375.11 44.51 375.11C44.51 375.11 43.19 371.11 43.07 370.82C41.72 367.99 37.43 363.32 33.95 363.82C33.3772 363.915 32.8306 364.128 32.3454 364.447C31.8601 364.765 31.4469 365.182 31.1323 365.67C30.8177 366.158 30.6087 366.706 30.5187 367.28C30.4288 367.853 30.4599 368.439 30.61 369C31.19 371.38 33.67 373.18 35.81 374.11Z" fill="#20BAAA"/>
<path d="M37.94 392C40.56 392.38 46.07 390.78 46.5 390.65C47.4099 393.8 48.5256 396.886 49.84 399.89C50.6 401.65 51.42 403.39 52.26 405.12C51.76 404.39 51.26 403.73 51.26 403.65C49.26 401.28 43.84 397.9 40.61 399.27C40.0784 399.512 39.6039 399.864 39.2173 400.302C38.8307 400.74 38.5407 401.255 38.3662 401.812C38.1917 402.37 38.1365 402.958 38.2044 403.538C38.2722 404.118 38.4615 404.678 38.76 405.18C39.96 407.35 42.82 408.43 45.14 408.77C47.46 409.11 52.22 407.84 53.46 407.49C53.79 408.16 54.11 408.82 54.46 409.49C56.05 412.67 57.65 415.83 59.13 418.98C59.66 420.09 60.13 421.2 60.61 422.31C60.16 421.66 59.78 421.11 59.71 421.03C57.66 418.66 52.29 415.28 49.06 416.65C48.5282 416.892 48.0535 417.244 47.6671 417.682C47.2806 418.12 46.9911 418.635 46.8174 419.193C46.6437 419.751 46.5898 420.339 46.6591 420.92C46.7285 421.5 46.9196 422.059 47.22 422.56C48.41 424.74 51.22 425.81 53.59 426.15C55.96 426.49 60.21 425.35 61.69 424.94C62.14 426.09 62.6 427.24 62.99 428.38C63.24 429.16 63.53 429.9 63.73 430.7L64.39 433.04C64.75 434.54 65.13 436.04 65.44 437.56C65.67 438.56 65.87 439.56 66.07 440.56C65.56 439.45 64.52 437.29 64.42 437.12C62.75 434.47 57.96 430.31 54.55 431.18C53.9893 431.341 53.4686 431.618 53.0215 431.993C52.5745 432.367 52.211 432.832 51.9547 433.356C51.6983 433.88 51.5548 434.452 51.5333 435.035C51.5118 435.618 51.6129 436.199 51.83 436.74C52.69 439.07 55.35 440.57 57.59 441.26C60.06 442.01 65.53 441.32 66.21 441.26C66.54 442.89 66.84 444.48 67.1 445.99C67.69 449.31 68.1 452.29 68.46 454.82H70.77C70.37 452.21 69.84 449.1 69.15 445.61C68.82 443.95 68.44 442.18 68.03 440.37C69.6775 439.715 71.2838 438.96 72.84 438.11C74.64 440.06 79.25 442.34 79.84 442.63C79.22 444.17 78.59 445.63 77.98 447.07C76.7 450 75.49 452.6 74.42 454.82H76.92C77.83 452.82 78.84 450.45 79.92 447.88C80.56 446.31 81.22 444.63 81.92 442.88C82.58 443.02 87.99 444.12 90.51 443.55C92.79 443.04 95.51 441.74 96.59 439.48C96.8472 438.956 96.9916 438.384 97.0137 437.8C97.0359 437.217 96.9353 436.636 96.7185 436.094C96.5017 435.552 96.1735 435.061 95.7552 434.654C95.3368 434.247 94.8377 433.932 94.29 433.73C90.96 432.61 85.87 436.4 84.01 438.92C83.9 439.07 82.89 440.82 82.27 441.92C82.53 441.21 82.8 440.52 83.06 439.78C83.6 438.34 84.06 436.87 84.61 435.3C84.84 434.53 85.07 433.76 85.31 432.98C85.55 432.2 85.72 431.36 85.94 430.54C86.39 428.64 86.75 426.69 87.08 424.72C88.35 425.18 92.89 426.72 95.23 426.59C97.57 426.46 100.51 425.59 101.86 423.49C102.19 423.013 102.416 422.472 102.524 421.901C102.633 421.331 102.62 420.745 102.489 420.18C102.357 419.615 102.108 419.084 101.759 418.62C101.409 418.157 100.967 417.772 100.46 417.49C97.34 415.88 91.74 418.85 89.46 421.06C89.32 421.2 87.91 422.97 87.15 423.95C87.33 422.76 87.53 421.58 87.68 420.37C88.11 416.89 88.44 413.37 88.78 409.82C88.89 408.73 89 407.66 89.12 406.58C89.57 406.75 94.92 408.74 97.55 408.58C99.89 408.41 102.82 407.58 104.17 405.47C104.5 404.993 104.727 404.453 104.836 403.883C104.945 403.313 104.934 402.727 104.803 402.162C104.672 401.597 104.424 401.066 104.076 400.602C103.728 400.139 103.286 399.753 102.78 399.47C99.65 397.86 94.05 400.83 91.78 403.05C91.61 403.21 89.57 405.76 89.09 406.43C89.34 404.06 89.61 401.7 89.97 399.38C90.4415 396.212 91.1196 393.079 92 390C92.21 390.08 97.78 392.19 100.48 392C102.82 391.83 105.75 391 107.1 388.89C107.43 388.413 107.657 387.873 107.766 387.303C107.875 386.733 107.864 386.147 107.733 385.582C107.602 385.017 107.354 384.486 107.006 384.022C106.658 383.559 106.216 383.173 105.71 382.89C102.58 381.28 96.98 384.25 94.76 386.47C94.58 386.64 92.39 389.38 92.03 389.91C92.03 389.73 92.12 389.54 92.17 389.37C93.136 386.338 94.3674 383.396 95.85 380.58C96.65 379.02 97.5 377.58 98.36 376.18C99.36 376.68 103.95 378.9 106.36 379C108.77 379.1 111.71 378.56 113.29 376.64C113.676 376.202 113.965 375.688 114.138 375.131C114.312 374.574 114.366 373.986 114.297 373.407C114.228 372.827 114.038 372.269 113.738 371.768C113.439 371.267 113.038 370.835 112.56 370.5C109.63 368.55 103.74 370.89 101.28 372.84C101.15 372.95 99.91 374.18 99.03 375.09C99.42 374.47 99.82 373.82 100.21 373.23C101.69 371.02 103.21 369.08 104.5 367.38C105.26 366.38 105.97 365.56 106.64 364.76C107.87 364.76 112.85 364.59 115.02 363.57C117.19 362.55 119.57 360.71 120.08 358.29C120.22 357.723 120.239 357.132 120.136 356.557C120.033 355.981 119.81 355.434 119.482 354.95C119.154 354.466 118.728 354.057 118.231 353.749C117.735 353.44 117.179 353.24 116.6 353.16C113.11 352.79 108.96 357.58 107.68 360.44C107.57 360.69 106.29 364.77 106.35 364.77H106.43C105.77 365.53 105.07 366.34 104.32 367.24C102.95 368.92 101.42 370.83 99.9 373.02C98.2333 375.365 96.7009 377.802 95.31 380.32C93.7488 383.139 92.4404 386.09 91.4 389.14V389.25C91.4 388.25 91.4 385.34 91.34 385.12C90.94 382.01 88.34 376.23 84.87 375.59C84.293 375.499 83.7035 375.531 83.1398 375.684C82.576 375.836 82.0506 376.106 81.5979 376.474C81.1451 376.843 80.775 377.303 80.5118 377.825C80.2485 378.346 80.098 378.917 80.07 379.5C79.87 381.97 81.67 384.45 83.41 386.01C85.41 387.77 90.86 389.48 91.3 389.61C90.3252 392.719 89.5569 395.889 89 399.1C88.67 400.98 88.39 402.89 88.13 404.8C88.13 403.91 88.13 403.11 88.13 403C87.72 399.89 85.13 394.11 81.66 393.47C81.083 393.379 80.4935 393.411 79.9298 393.564C79.366 393.716 78.8406 393.986 78.3879 394.354C77.9351 394.723 77.565 395.183 77.3018 395.705C77.0385 396.226 76.888 396.797 76.86 397.38C76.66 399.86 78.45 402.33 80.2 403.89C81.95 405.45 86.61 407.03 87.84 407.42C87.75 408.16 87.65 408.89 87.57 409.62C87.14 413.15 86.74 416.67 86.23 420.11C86.06 421.33 85.84 422.52 85.62 423.71C85.62 422.92 85.62 422.25 85.62 422.15C85.22 419.03 82.62 413.26 79.15 412.62C78.5736 412.529 77.9845 412.561 77.4213 412.714C76.8581 412.866 76.3334 413.136 75.8814 413.505C75.4293 413.874 75.0602 414.334 74.7981 414.855C74.5359 415.376 74.3866 415.947 74.36 416.53C74.15 419 75.95 421.53 77.7 423.04C79.45 424.55 83.7 426.04 85.12 426.49C84.86 427.71 84.61 428.92 84.3 430.08C84.08 430.87 83.92 431.65 83.65 432.43L82.9 434.74C82.37 436.19 81.84 437.69 81.29 439.09C80.91 440.09 80.53 441 80.16 441.93C80.35 440.73 80.67 438.36 80.68 438.16C80.6351 435.398 79.8883 432.693 78.51 430.3C78.5202 429.992 78.5001 429.684 78.45 429.38C78.3771 428.801 78.1834 428.244 77.8812 427.745C77.5791 427.246 77.1754 426.816 76.6964 426.483C76.2173 426.15 75.6736 425.922 75.1005 425.813C74.5274 425.704 73.9378 425.716 73.37 425.85C69.97 426.75 67.82 432.72 67.65 435.85C67.65 436.04 67.77 438.05 67.86 439.33C67.69 438.59 67.53 437.87 67.35 437.11C66.99 435.61 66.59 434.11 66.17 432.51C65.94 431.75 65.7 430.97 65.47 430.19C65.24 429.41 64.92 428.61 64.65 427.82C63.97 425.98 63.2 424.15 62.39 422.32C63.7 422.01 68.39 420.82 70.22 419.39C72.05 417.96 74.06 415.63 74.04 413.15C74.0559 412.566 73.9487 411.986 73.7256 411.447C73.5024 410.907 73.1683 410.421 72.7448 410.019C72.3213 409.617 71.8179 409.309 71.2675 409.114C70.7171 408.92 70.1319 408.843 69.55 408.89C66.05 409.27 63.02 414.83 62.38 417.89C62.38 418.08 62.14 420.34 62.05 421.58C61.55 420.49 61.05 419.39 60.51 418.3C58.95 415.16 57.27 412.02 55.61 408.89C55.1 407.89 54.61 406.96 54.11 406C54.58 405.89 60.11 404.6 62.23 403C64.09 401.57 66.06 399.24 66.04 396.76C66.0574 396.176 65.9514 395.595 65.7288 395.055C65.5062 394.515 65.172 394.027 64.7482 393.625C64.3244 393.223 63.8204 392.915 63.2692 392.721C62.7181 392.527 62.1322 392.452 61.55 392.5C58.06 392.88 55.02 398.44 54.39 401.5C54.39 401.73 54.05 404.98 54.02 405.81C52.91 403.69 51.84 401.57 50.86 399.43C49.5232 396.555 48.3773 393.596 47.43 390.57C47.65 390.52 53.43 389.2 55.6 387.57C57.46 386.14 59.43 383.81 59.42 381.32C59.4346 380.736 59.3261 380.156 59.1018 379.617C58.8774 379.078 58.5421 378.592 58.1176 378.192C57.6932 377.791 57.1891 377.484 56.6382 377.29C56.0873 377.097 55.5018 377.022 54.92 377.07C51.43 377.45 48.4 383.01 47.76 386.07C47.76 386.31 47.4 389.8 47.39 390.44C47.33 390.26 47.26 390.09 47.21 389.91C46.338 386.853 45.7423 383.724 45.43 380.56C45.23 378.81 45.14 377.13 45.09 375.5C46.2 375.36 51.25 374.69 53.34 373.42C55.43 372.15 57.57 370.1 57.82 367.63C57.9004 367.052 57.8578 366.463 57.6951 365.902C57.5323 365.341 57.2531 364.821 56.8755 364.375C56.498 363.93 56.0307 363.569 55.5041 363.317C54.9776 363.064 54.4037 362.926 53.82 362.91C50.3 362.91 46.67 368.1 45.71 371.09C45.65 371.25 45.3 372.96 45.06 374.21C45.06 373.47 45.06 372.71 45.06 372C45.06 369.34 45.23 366.91 45.4 364.75C45.5 363.53 45.62 362.42 45.74 361.39C46.74 360.69 50.82 357.82 52.08 355.77C53.34 353.72 54.29 350.88 53.38 348.57C53.1852 348.02 52.8765 347.517 52.4742 347.094C52.0719 346.672 51.5849 346.339 51.0451 346.117C50.5053 345.895 49.9248 345.79 49.3415 345.807C48.7582 345.825 48.1852 345.966 47.66 346.22C44.53 347.84 43.71 354.12 44.23 357.22C44.23 357.48 45.45 361.59 45.51 361.55H45.57C45.43 362.55 45.3 363.61 45.17 364.77C44.96 366.93 44.73 369.36 44.67 372.03C44.5694 374.905 44.6396 377.783 44.88 380.65C45.1267 383.861 45.6588 387.043 46.47 390.16C46.47 390.16 46.47 390.24 46.47 390.27C45.92 389.4 44.29 387.03 44.14 386.86C42.09 384.48 36.73 381.1 33.49 382.48C32.9593 382.723 32.4858 383.076 32.1002 383.514C31.7146 383.953 31.4257 384.467 31.2521 385.025C31.0786 385.582 31.0243 386.17 31.0929 386.75C31.1614 387.33 31.3512 387.888 31.65 388.39C32.76 390.57 35.62 391.65 37.94 392Z" fill="#20BAAA"/>
<path d="M98.22 375.47C98.22 375.47 99.34 371.37 99.38 371.1C99.81 367.99 98.82 361.73 95.65 360.2C95.1177 359.963 94.5414 359.84 93.9585 359.839C93.3755 359.839 92.799 359.961 92.2663 360.197C91.7336 360.434 91.2566 360.78 90.8662 361.213C90.4758 361.646 90.1807 362.156 90 362.71C89.15 365.04 90.22 367.9 91.5 369.87C93 372.18 98.22 375.47 98.22 375.47Z" fill="#20BAAA"/>
<path d="M395.81 374.11C398.34 375.22 404.51 375.11 404.51 375.11C404.51 375.11 403.19 371.11 403.07 370.82C401.72 367.99 397.43 363.32 393.95 363.82C393.374 363.914 392.824 364.128 392.336 364.449C391.848 364.769 391.434 365.189 391.119 365.68C390.804 366.172 390.595 366.724 390.508 367.301C390.42 367.878 390.455 368.467 390.61 369.03C391.19 371.38 393.67 373.18 395.81 374.11Z" fill="#20BAAA"/>
<path d="M397.94 392C400.56 392.38 406.07 390.78 406.5 390.65C407.41 393.8 408.526 396.886 409.84 399.89C410.6 401.65 411.42 403.39 412.26 405.12C411.76 404.39 411.26 403.73 411.26 403.65C409.21 401.28 403.84 397.9 400.61 399.27C400.078 399.512 399.604 399.864 399.217 400.302C398.831 400.74 398.541 401.255 398.366 401.812C398.192 402.37 398.137 402.958 398.204 403.538C398.272 404.118 398.462 404.678 398.76 405.18C399.96 407.35 402.82 408.43 405.14 408.77C407.46 409.11 412.22 407.84 413.46 407.49C413.79 408.16 414.11 408.82 414.46 409.49C416.05 412.67 417.65 415.83 419.13 418.98C419.66 420.09 420.13 421.2 420.61 422.31C420.16 421.66 419.78 421.11 419.71 421.03C417.66 418.66 412.29 415.28 409.06 416.65C408.528 416.892 408.054 417.244 407.667 417.682C407.281 418.12 406.991 418.635 406.817 419.193C406.644 419.751 406.59 420.339 406.659 420.92C406.729 421.5 406.92 422.059 407.22 422.56C408.41 424.74 411.27 425.81 413.59 426.15C415.91 426.49 420.21 425.35 421.69 424.94C422.14 426.09 422.6 427.24 422.99 428.38C423.24 429.16 423.53 429.9 423.73 430.7L424.39 433.04C424.75 434.54 425.13 436.04 425.39 437.56C425.62 438.56 425.82 439.56 426.02 440.56C425.51 439.45 424.47 437.29 424.37 437.12C422.7 434.47 417.91 430.31 414.5 431.18C413.939 431.341 413.419 431.618 412.971 431.993C412.524 432.367 412.161 432.832 411.905 433.356C411.648 433.88 411.505 434.452 411.483 435.035C411.462 435.618 411.563 436.199 411.78 436.74C412.64 439.07 415.3 440.57 417.54 441.26C420.01 442.01 425.48 441.32 426.16 441.26C426.49 442.89 426.79 444.48 427.05 445.99C427.64 449.31 428.05 452.29 428.41 454.82H430.72C430.32 452.21 429.79 449.1 429.1 445.61C428.77 443.95 428.39 442.18 427.98 440.37C429.628 439.715 431.234 438.96 432.79 438.11C434.59 440.06 439.2 442.34 439.79 442.63C439.17 444.17 438.54 445.63 437.93 447.07C436.65 450 435.44 452.6 434.37 454.82H436.87C437.78 452.82 438.79 450.45 439.87 447.88C440.51 446.31 441.17 444.63 441.87 442.88C442.53 443.02 447.94 444.12 450.46 443.55C452.74 443.04 455.46 441.74 456.54 439.48C456.797 438.956 456.942 438.384 456.964 437.8C456.986 437.217 456.885 436.636 456.668 436.094C456.452 435.552 456.123 435.061 455.705 434.654C455.287 434.247 454.788 433.932 454.24 433.73C450.91 432.61 445.82 436.4 443.96 438.92C443.85 439.07 442.84 440.82 442.22 441.92C442.48 441.21 442.75 440.52 443.01 439.78C443.55 438.34 444.01 436.87 444.56 435.3C444.79 434.53 445.02 433.76 445.26 432.98C445.5 432.2 445.67 431.36 445.89 430.54C446.34 428.64 446.7 426.69 447.03 424.72C448.3 425.18 452.84 426.72 455.18 426.59C457.52 426.46 460.46 425.59 461.81 423.49C462.14 423.013 462.366 422.472 462.474 421.901C462.583 421.331 462.57 420.745 462.439 420.18C462.307 419.615 462.058 419.084 461.709 418.62C461.359 418.157 460.917 417.772 460.41 417.49C457.29 415.88 451.69 418.85 449.46 421.06C449.32 421.2 447.91 422.97 447.15 423.95C447.33 422.76 447.53 421.58 447.68 420.37C448.11 416.89 448.44 413.37 448.78 409.82C448.89 408.73 449 407.66 449.12 406.58C449.57 406.75 454.92 408.74 457.55 408.58C459.89 408.41 462.82 407.58 464.17 405.47C464.5 404.993 464.727 404.453 464.836 403.883C464.945 403.313 464.934 402.727 464.803 402.162C464.672 401.597 464.424 401.066 464.076 400.602C463.728 400.139 463.286 399.753 462.78 399.47C459.65 397.86 454.05 400.83 451.78 403.05C451.61 403.21 449.57 405.76 449.09 406.43C449.34 404.06 449.61 401.7 449.97 399.38C450.435 396.243 451.104 393.14 451.97 390.09C452.18 390.17 457.75 392.28 460.45 392.09C462.79 391.92 465.72 391.09 467.07 388.98C467.4 388.503 467.627 387.963 467.736 387.393C467.845 386.823 467.834 386.237 467.703 385.672C467.572 385.107 467.324 384.576 466.976 384.112C466.628 383.649 466.186 383.263 465.68 382.98C462.55 381.37 456.95 384.34 454.73 386.56C454.55 386.73 452.36 389.47 452 390C452.05 389.82 452.09 389.63 452.14 389.46C453.106 386.428 454.337 383.486 455.82 380.67C456.62 379.11 457.47 377.67 458.33 376.27C459.33 376.77 463.92 378.99 466.33 379.09C468.74 379.19 471.68 378.65 473.26 376.73C473.646 376.292 473.935 375.778 474.108 375.221C474.282 374.664 474.336 374.076 474.267 373.497C474.198 372.917 474.008 372.359 473.708 371.858C473.409 371.357 473.008 370.925 472.53 370.59C469.6 368.64 463.71 370.98 461.25 372.93C461.12 373.04 459.88 374.27 459 375.18C459.39 374.56 459.79 373.91 460.18 373.32C461.66 371.11 463.18 369.17 464.47 367.47C465.23 366.47 465.94 365.65 466.61 364.85C467.84 364.85 472.82 364.68 474.99 363.66C477.16 362.64 479.54 360.8 480.05 358.38C480.19 357.813 480.209 357.222 480.106 356.647C480.003 356.071 479.78 355.524 479.452 355.04C479.124 354.556 478.698 354.147 478.201 353.839C477.705 353.53 477.149 353.33 476.57 353.25C473.08 352.88 468.93 357.67 467.65 360.53C467.54 360.78 466.26 364.86 466.32 364.86H466.4C465.74 365.62 465.04 366.43 464.29 367.33C462.92 369.01 461.39 370.92 459.87 373.11C458.203 375.455 456.671 377.892 455.28 380.41C453.719 383.229 452.41 386.18 451.37 389.23V389.34C451.37 388.34 451.37 385.43 451.31 385.21C450.91 382.1 448.31 376.32 444.84 375.68C444.263 375.589 443.674 375.621 443.11 375.774C442.546 375.926 442.021 376.196 441.568 376.564C441.115 376.933 440.745 377.393 440.482 377.915C440.219 378.436 440.068 379.007 440.04 379.59C439.84 382.06 441.64 384.54 443.38 386.1C445.38 387.86 450.83 389.57 451.27 389.7C450.309 392.781 449.551 395.921 449 399.1C448.67 400.98 448.39 402.89 448.13 404.8C448.13 403.91 448.13 403.11 448.13 403C447.72 399.89 445.13 394.11 441.66 393.47C441.083 393.379 440.493 393.411 439.93 393.564C439.366 393.716 438.841 393.986 438.388 394.354C437.935 394.723 437.565 395.183 437.302 395.705C437.039 396.226 436.888 396.797 436.86 397.38C436.66 399.86 438.45 402.33 440.2 403.89C441.95 405.45 446.61 407.03 447.84 407.42C447.75 408.16 447.65 408.89 447.57 409.62C447.14 413.15 446.74 416.67 446.23 420.11C446.06 421.33 445.84 422.52 445.62 423.71C445.62 422.92 445.62 422.25 445.62 422.15C445.22 419.03 442.62 413.26 439.15 412.62C438.574 412.529 437.985 412.561 437.421 412.714C436.858 412.866 436.333 413.136 435.881 413.505C435.429 413.874 435.06 414.334 434.798 414.855C434.536 415.376 434.387 415.947 434.36 416.53C434.15 419 435.95 421.53 437.7 423.04C439.45 424.55 443.7 426.04 445.12 426.49C444.86 427.71 444.61 428.92 444.3 430.08C444.08 430.87 443.92 431.65 443.65 432.43L442.9 434.74C442.37 436.19 441.84 437.69 441.29 439.09C440.91 440.09 440.53 441 440.16 441.93C440.35 440.73 440.67 438.36 440.68 438.16C440.635 435.398 439.888 432.693 438.51 430.3C438.52 429.992 438.5 429.684 438.45 429.38C438.377 428.801 438.183 428.244 437.881 427.745C437.579 427.246 437.175 426.816 436.696 426.483C436.217 426.15 435.674 425.922 435.101 425.813C434.527 425.704 433.938 425.716 433.37 425.85C429.97 426.75 427.82 432.72 427.65 435.85C427.65 436.04 427.77 438.05 427.86 439.33C427.69 438.59 427.53 437.87 427.35 437.11C426.99 435.61 426.59 434.11 426.17 432.51C425.94 431.75 425.7 430.97 425.47 430.19C425.24 429.41 424.92 428.61 424.65 427.82C423.97 425.98 423.2 424.15 422.39 422.32C423.7 422.01 428.39 420.82 430.22 419.39C432.05 417.96 434.06 415.63 434.04 413.15C434.056 412.566 433.949 411.986 433.726 411.447C433.502 410.907 433.168 410.421 432.745 410.019C432.321 409.617 431.818 409.309 431.268 409.114C430.717 408.92 430.132 408.843 429.55 408.89C426.05 409.27 423.02 414.83 422.38 417.89C422.38 418.08 422.14 420.34 422.05 421.58C421.55 420.49 421.05 419.39 420.51 418.3C418.95 415.16 417.27 412.02 415.61 408.89C415.1 407.89 414.61 406.96 414.11 406C414.58 405.89 420.11 404.6 422.23 403C424.09 401.57 426.06 399.24 426.04 396.76C426.057 396.176 425.951 395.595 425.729 395.055C425.506 394.515 425.172 394.027 424.748 393.625C424.324 393.223 423.82 392.915 423.269 392.721C422.718 392.527 422.132 392.452 421.55 392.5C418.06 392.88 415.02 398.44 414.39 401.5C414.34 401.73 414.05 404.98 414.02 405.81C412.92 403.69 411.84 401.57 410.86 399.43C409.527 396.553 408.382 393.594 407.43 390.57C407.65 390.52 413.43 389.2 415.6 387.57C417.46 386.14 419.43 383.81 419.42 381.32C419.435 380.736 419.326 380.156 419.102 379.617C418.877 379.078 418.542 378.592 418.118 378.192C417.693 377.791 417.189 377.484 416.638 377.29C416.087 377.097 415.502 377.022 414.92 377.07C411.43 377.45 408.4 383.01 407.76 386.07C407.71 386.31 407.4 389.8 407.39 390.44C407.33 390.26 407.26 390.09 407.21 389.91C406.338 386.853 405.742 383.724 405.43 380.56C405.23 378.81 405.14 377.13 405.09 375.5C406.2 375.36 411.25 374.69 413.34 373.42C415.43 372.15 417.57 370.1 417.82 367.63C417.9 367.052 417.858 366.463 417.695 365.902C417.532 365.341 417.253 364.821 416.876 364.375C416.498 363.93 416.031 363.569 415.504 363.317C414.978 363.064 414.404 362.926 413.82 362.91C410.3 362.91 406.67 368.1 405.71 371.09C405.65 371.25 405.3 372.96 405.06 374.21C405.06 373.47 405.06 372.71 405.06 372C405.06 369.34 405.23 366.91 405.4 364.75C405.5 363.53 405.62 362.42 405.74 361.39C406.74 360.69 410.82 357.82 412.08 355.77C413.34 353.72 414.29 350.88 413.38 348.57C413.185 348.02 412.876 347.517 412.474 347.094C412.072 346.672 411.585 346.339 411.045 346.117C410.505 345.895 409.925 345.79 409.342 345.807C408.758 345.825 408.185 345.966 407.66 346.22C404.53 347.84 403.66 354.12 404.23 357.22C404.23 357.48 405.45 361.59 405.51 361.55H405.57C405.43 362.55 405.3 363.61 405.17 364.77C404.96 366.93 404.73 369.36 404.67 372.03C404.569 374.905 404.64 377.783 404.88 380.65C405.127 383.861 405.659 387.043 406.47 390.16C406.47 390.16 406.47 390.24 406.47 390.27C405.92 389.4 404.29 387.03 404.14 386.86C402.09 384.48 396.73 381.1 393.49 382.48C392.959 382.723 392.486 383.076 392.1 383.514C391.715 383.953 391.426 384.467 391.252 385.025C391.079 385.582 391.024 386.17 391.093 386.75C391.161 387.33 391.351 387.888 391.65 388.39C392.76 390.57 395.62 391.65 397.94 392Z" fill="#20BAAA"/>
<path d="M458.22 375.47C458.22 375.47 459.34 371.37 459.38 371.1C459.81 367.99 458.82 361.73 455.65 360.2C455.118 359.963 454.541 359.84 453.958 359.839C453.376 359.839 452.799 359.961 452.266 360.197C451.734 360.434 451.257 360.78 450.866 361.213C450.476 361.646 450.181 362.156 450 362.71C449.15 365.04 450.22 367.9 451.5 369.87C453 372.18 458.22 375.47 458.22 375.47Z" fill="#20BAAA"/>
<path d="M105.38 234.91C104.75 232.23 100.94 227.37 100.93 227.37C100.92 227.37 98.5 230.85 98.37 231.09C96.92 233.88 95.75 240.09 98.21 242.61C98.6306 243.015 99.1319 243.327 99.6812 243.525C100.231 243.723 100.816 243.803 101.398 243.76C101.98 243.716 102.547 243.551 103.061 243.273C103.575 242.996 104.024 242.613 104.38 242.15C106 240.24 105.92 237.19 105.38 234.91Z" fill="#20BAAA"/>
<path d="M118.4 222.48C117.14 220.16 112.56 216.71 112.19 216.48C114.169 213.867 115.969 211.124 117.58 208.27C118.58 206.61 119.43 204.91 120.32 203.19C120.03 204.04 119.78 204.79 119.76 204.9C119.09 207.97 119.6 214.29 122.64 216.05C123.154 216.328 123.72 216.496 124.302 216.541C124.885 216.587 125.47 216.51 126.021 216.315C126.571 216.119 127.075 215.811 127.498 215.409C127.922 215.006 128.256 214.52 128.48 213.98C129.48 211.72 128.64 208.79 127.48 206.73C126.32 204.67 122.48 201.62 121.48 200.84C121.81 200.17 122.15 199.52 122.48 198.84C124.07 195.66 125.63 192.48 127.26 189.41C127.84 188.33 128.44 187.28 129.05 186.23C128.79 186.98 128.58 187.62 128.56 187.72C127.9 190.78 128.41 197.1 131.45 198.87C131.963 199.148 132.528 199.316 133.11 199.361C133.692 199.407 134.276 199.329 134.826 199.134C135.376 198.939 135.879 198.63 136.301 198.228C136.724 197.826 137.058 197.339 137.28 196.8C138.28 194.54 137.45 191.6 136.33 189.54C135.21 187.48 131.72 184.73 130.5 183.79C131.15 182.79 131.8 181.68 132.5 180.69C132.98 180.02 133.39 179.34 133.91 178.69L135.39 176.77C136.39 175.58 137.39 174.34 138.39 173.21C139.07 172.41 139.74 171.67 140.39 170.91C139.81 171.99 138.71 174.11 138.64 174.3C137.51 177.23 137.06 183.55 139.8 185.75C140.264 186.105 140.798 186.358 141.366 186.493C141.935 186.627 142.526 186.64 143.1 186.531C143.673 186.421 144.218 186.192 144.697 185.857C145.176 185.523 145.579 185.091 145.88 184.59C147.23 182.51 146.88 179.48 146.04 177.28C145.16 174.85 141.33 170.89 140.85 170.4C141.96 169.16 143.05 167.96 144.1 166.85C146.41 164.38 148.52 162.24 150.34 160.46L149 158.6C147.15 160.48 145 162.77 142.6 165.42C141.47 166.67 140.29 168.04 139.08 169.42C137.567 168.498 136.001 167.666 134.39 166.93C134.87 164.32 133.93 159.27 133.8 158.62C135.41 158.19 136.99 157.8 138.47 157.45C141.59 156.71 144.39 156.12 146.8 155.64L145.31 153.64C143.13 154.13 140.66 154.71 137.97 155.42C136.33 155.84 134.59 156.32 132.81 156.84C132.52 156.23 130.16 151.24 128.19 149.56C126.4 148.04 123.71 146.56 121.28 147.14C120.706 147.249 120.162 147.476 119.682 147.809C119.202 148.141 118.797 148.57 118.494 149.069C118.19 149.568 117.995 150.125 117.92 150.703C117.845 151.282 117.893 151.871 118.06 152.43C119.16 155.76 125.24 157.56 128.38 157.54C128.57 157.54 130.57 157.3 131.84 157.12L129.66 157.77C128.18 158.21 126.66 158.7 125.14 159.22L122.86 160.06C122.09 160.32 121.32 160.7 120.54 161.06C118.74 161.83 116.96 162.71 115.19 163.63C114.8 162.34 113.34 157.76 111.8 155.98C110.26 154.2 107.8 152.38 105.34 152.54C104.755 152.558 104.181 152.699 103.655 152.954C103.128 153.209 102.661 153.572 102.284 154.019C101.906 154.466 101.627 154.987 101.465 155.549C101.302 156.111 101.26 156.701 101.34 157.28C101.93 160.75 107.66 163.45 110.77 163.9C110.96 163.9 113.23 164 114.47 164.02C113.41 164.58 112.35 165.13 111.29 165.74C108.29 167.48 105.22 169.34 102.18 171.19L99.39 172.86C99.26 172.4 97.64 166.92 95.92 164.93C94.38 163.16 91.92 161.32 89.46 161.49C88.8758 161.507 88.3017 161.647 87.7752 161.9C87.2486 162.154 86.7814 162.516 86.404 162.962C86.0267 163.408 85.7475 163.929 85.5849 164.49C85.4222 165.052 85.3796 165.641 85.46 166.22C86.05 169.69 91.78 172.39 94.89 172.84C95.12 172.84 98.38 172.98 99.21 172.96C97.21 174.19 95.11 175.39 93.04 176.49C90.2462 177.992 87.3566 179.308 84.39 180.43C84.33 180.22 82.67 174.5 80.9 172.43C79.37 170.66 76.9 168.83 74.45 168.99C73.8648 169.007 73.2898 169.147 72.7624 169.401C72.2351 169.655 71.7674 170.018 71.3899 170.465C71.0123 170.913 70.7334 171.435 70.5715 171.997C70.4095 172.56 70.3681 173.15 70.45 173.73C71.03 177.2 76.77 179.89 79.88 180.35C80.12 180.35 83.63 180.49 84.26 180.46L83.75 180.67C80.7426 181.722 77.6468 182.502 74.5 183C72.77 183.3 71.1 183.49 69.5 183.64C69.3 182.54 68.33 177.53 66.94 175.52C65.55 173.51 63.38 171.52 60.94 171.39C60.358 171.345 59.773 171.423 59.2231 171.618C58.6732 171.814 58.1706 172.124 57.748 172.526C57.3255 172.929 56.9924 173.416 56.7705 173.956C56.5486 174.496 56.4428 175.077 56.46 175.66C56.66 179.17 62.07 182.48 65.1 183.27C65.27 183.32 67 183.57 68.26 183.73C67.52 183.79 66.76 183.86 66.05 183.9C63.4 184.05 60.96 184.02 58.8 183.98C57.57 183.98 56.46 183.9 55.42 183.84C54.67 182.84 51.56 178.97 49.42 177.84C47.28 176.71 44.42 175.91 42.16 176.96C41.6218 177.186 41.1377 177.524 40.7393 177.951C40.3409 178.378 40.0373 178.884 39.8484 179.437C39.6595 179.989 39.5896 180.575 39.6433 181.157C39.697 181.738 39.8731 182.301 40.16 182.81C41.95 185.81 48.28 186.28 51.34 185.58C51.6 185.52 55.63 184.1 55.59 184.05L55.54 183.99C56.54 184.07 57.61 184.15 58.78 184.2C60.95 184.29 63.39 184.37 66.06 184.27C68.9345 184.197 71.8025 183.96 74.65 183.56C77.8419 183.124 80.9881 182.402 84.05 181.4H84.16C83.32 182 81.05 183.77 80.89 183.92C78.64 186.11 75.58 191.67 77.14 194.82C77.4153 195.333 77.7951 195.783 78.2549 196.141C78.7147 196.498 79.2443 196.755 79.8095 196.896C80.3748 197.036 80.9632 197.056 81.5368 196.956C82.1104 196.855 82.6565 196.635 83.14 196.31C85.24 194.99 86.14 192.07 86.35 189.73C86.57 187.1 84.66 181.73 84.5 181.27C87.582 180.176 90.5885 178.88 93.5 177.39C95.2 176.53 96.9 175.61 98.58 174.67C97.87 175.21 97.25 175.67 97.17 175.78C94.92 177.97 91.86 183.53 93.43 186.67C93.7033 187.185 94.0819 187.637 94.5411 187.997C95.0004 188.356 95.5301 188.615 96.0959 188.756C96.6617 188.898 97.2509 188.919 97.8253 188.818C98.3996 188.717 98.9464 188.496 99.43 188.17C101.53 186.84 102.43 183.93 102.64 181.59C102.85 179.25 101.3 174.59 100.87 173.36L102.8 172.26C105.88 170.48 108.94 168.69 112 167.03C113.07 166.44 114.15 165.91 115.23 165.36L114.01 166.36C111.77 168.55 108.71 174.11 110.27 177.25C110.544 177.764 110.924 178.215 111.383 178.573C111.842 178.932 112.372 179.19 112.937 179.331C113.502 179.473 114.091 179.494 114.665 179.394C115.239 179.294 115.786 179.074 116.27 178.75C118.37 177.43 119.27 174.5 119.47 172.17C119.67 169.84 118.28 165.61 117.78 164.17C118.91 163.65 120.03 163.12 121.14 162.67C121.91 162.37 122.63 162.04 123.41 161.79L125.71 161C127.19 160.55 128.71 160.08 130.16 159.68C131.16 159.39 132.16 159.14 133.11 158.88C132.03 159.45 129.94 160.61 129.78 160.73C127.587 162.411 125.865 164.629 124.78 167.17C124.531 167.351 124.297 167.551 124.08 167.77C123.66 168.176 123.33 168.666 123.111 169.208C122.893 169.75 122.792 170.332 122.813 170.916C122.835 171.5 122.979 172.073 123.237 172.598C123.495 173.122 123.861 173.586 124.31 173.96C127.07 176.13 133.13 174.28 135.74 172.53C135.89 172.42 137.43 171.12 138.39 170.28C137.9 170.86 137.39 171.41 136.93 172.02C135.93 173.2 134.99 174.42 133.93 175.72C133.45 176.36 132.93 177.02 132.49 177.72C132.05 178.42 131.56 179.11 131.08 179.81C130.01 181.45 129.01 183.16 128.08 184.91C127.08 184.04 123.3 181.03 121.08 180.4C118.86 179.77 115.78 179.59 113.8 181.09C113.324 181.428 112.924 181.862 112.626 182.365C112.329 182.867 112.14 183.427 112.073 184.007C112.006 184.587 112.062 185.175 112.237 185.732C112.413 186.289 112.703 186.803 113.09 187.24C115.49 189.81 121.76 188.89 124.6 187.56C124.78 187.47 126.71 186.29 127.76 185.56C127.18 186.62 126.6 187.67 126.05 188.76C124.47 191.89 122.97 195.12 121.46 198.33C121 199.33 120.53 200.28 120.06 201.26C119.69 200.95 115.32 197.26 112.78 196.56C110.52 195.93 107.47 195.75 105.5 197.26C105.023 197.596 104.621 198.029 104.323 198.53C104.025 199.032 103.836 199.591 103.769 200.171C103.702 200.751 103.758 201.338 103.934 201.895C104.11 202.451 104.402 202.964 104.79 203.4C107.19 205.97 113.46 205.06 116.3 203.72C116.51 203.62 119.3 201.91 119.97 201.44C118.97 203.59 117.88 205.73 116.76 207.79C115.27 210.582 113.599 213.275 111.76 215.85C111.59 215.7 107.05 211.85 104.45 211.12C102.19 210.49 99.14 210.31 97.16 211.81C96.6836 212.148 96.2836 212.582 95.9861 213.085C95.6886 213.587 95.5003 214.147 95.4333 214.727C95.3663 215.307 95.4222 215.895 95.5974 216.452C95.7726 217.009 96.0631 217.523 96.45 217.96C98.85 220.53 105.13 219.61 107.97 218.28C108.19 218.17 111.17 216.33 111.69 215.95C111.58 216.1 111.49 216.27 111.38 216.42C109.445 218.933 107.297 221.275 104.96 223.42C103.68 224.62 102.39 225.7 101.11 226.73C100.34 225.92 96.77 222.28 94.5 221.37C92.23 220.46 89.31 219.98 87.18 221.26C86.6734 221.543 86.2317 221.929 85.8834 222.392C85.5352 222.856 85.288 223.388 85.158 223.954C85.028 224.519 85.0179 225.105 85.1285 225.675C85.2391 226.244 85.4678 226.784 85.8 227.26C87.9 230.08 94.24 229.86 97.21 228.84C97.37 228.84 98.95 228.04 100.09 227.48L98.35 228.84C96.22 230.43 94.17 231.75 92.35 232.91C91.35 233.56 90.35 234.13 89.46 234.65C88.29 234.26 83.55 232.73 81.16 232.96C78.77 233.19 75.92 234.11 74.62 236.23C74.2959 236.717 74.078 237.266 73.9806 237.843C73.8832 238.419 73.9085 239.01 74.0548 239.576C74.201 240.142 74.465 240.671 74.8294 241.129C75.1939 241.586 75.6507 241.961 76.17 242.23C79.34 243.76 84.86 240.65 87.02 238.38C87.21 238.18 89.79 234.77 89.73 234.75H89.66C90.53 234.27 91.47 233.75 92.47 233.14C94.33 232.01 96.41 230.73 98.58 229.14C100.938 227.492 103.198 225.709 105.35 223.8C107.773 221.672 109.999 219.329 112 216.8L112.07 216.71C111.71 217.71 110.78 220.4 110.74 220.62C110.07 223.68 110.58 230 113.62 231.77C114.134 232.048 114.7 232.216 115.282 232.261C115.865 232.307 116.45 232.23 117.001 232.035C117.551 231.839 118.055 231.531 118.478 231.129C118.902 230.726 119.236 230.24 119.46 229.7C120.38 227.48 119.52 224.54 118.4 222.48Z" fill="#20BAAA"/>
<path d="M69 184.16C69 184.1 65 185.72 64.81 185.86C62.06 187.37 57.65 191.92 58.32 195.37C58.451 195.937 58.6997 196.471 59.0499 196.936C59.4001 197.401 59.8441 197.788 60.3531 198.071C60.8621 198.353 61.4247 198.526 62.0047 198.578C62.5847 198.629 63.1691 198.559 63.72 198.37C66.1 197.65 67.72 195.07 68.55 192.87C69.53 190.32 69 184.17 69 184.16Z" fill="#20BAAA"/>
<path d="M404.77 243.87C405.67 241.26 409.95 236.82 409.95 236.81C409.95 236.8 412.03 240.52 412.13 240.81C413.3 243.73 413.84 250.04 411.13 252.29C410.67 252.65 410.14 252.908 409.573 253.05C409.007 253.191 408.417 253.212 407.842 253.111C407.267 253.011 406.72 252.79 406.235 252.464C405.751 252.139 405.34 251.715 405.03 251.22C403.66 249.12 404 246.08 404.77 243.87Z" fill="#20BAAA"/>
<path d="M393.06 230.21C394.55 228.02 399.45 225.05 399.84 224.81C398.132 222.011 396.612 219.101 395.29 216.1C394.52 214.36 393.79 212.58 393.08 210.78C393.28 211.65 393.45 212.43 393.46 212.54C393.82 215.66 392.68 221.89 389.46 223.34C388.922 223.568 388.342 223.68 387.757 223.669C387.173 223.658 386.598 223.523 386.069 223.274C385.54 223.024 385.07 222.666 384.69 222.223C384.309 221.779 384.026 221.26 383.86 220.7C383.07 218.35 384.21 215.52 385.54 213.58C386.87 211.64 391 209 392.11 208.32C391.84 207.63 391.57 206.94 391.31 206.25C390.05 202.92 388.81 199.6 387.49 196.38C387.02 195.25 386.49 194.15 386.03 193.04C386.21 193.82 386.35 194.47 386.36 194.57C386.72 197.69 385.58 203.92 382.36 205.37C381.822 205.597 381.242 205.708 380.658 205.695C380.074 205.683 379.499 205.548 378.971 205.299C378.443 205.05 377.973 204.693 377.592 204.25C377.211 203.807 376.928 203.289 376.76 202.73C375.97 200.38 377.11 197.55 378.44 195.61C379.77 193.67 383.5 191.28 384.81 190.47C384.27 189.36 383.73 188.24 383.15 187.18C382.74 186.47 382.4 185.76 381.95 185.07L380.71 183C379.85 181.72 378.97 180.39 378.1 179.17L376.32 176.68C376.79 177.81 377.68 180.03 377.73 180.22C378.56 183.22 378.37 189.59 375.43 191.51C374.931 191.815 374.374 192.011 373.794 192.086C373.215 192.162 372.626 192.114 372.066 191.947C371.506 191.78 370.987 191.498 370.543 191.117C370.1 190.737 369.741 190.268 369.49 189.74C368.35 187.54 369.06 184.56 370.07 182.45C371.18 180.12 375.39 176.56 375.92 176.12C374.92 174.78 373.97 173.48 373.04 172.27C370.99 169.59 369.04 167.27 367.46 165.27L369.02 163.57C370.67 165.63 372.6 168.12 374.7 171C375.7 172.36 376.75 173.84 377.8 175.36C379.4 174.599 381.043 173.931 382.72 173.36C382.5 170.72 383.94 165.78 384.14 165.15C382.57 164.56 381.05 164.01 379.61 163.52C376.61 162.47 373.85 161.6 371.5 160.89L373.18 159.06C375.3 159.76 377.7 160.59 380.31 161.56C381.89 162.14 383.58 162.8 385.31 163.49C385.66 162.91 388.51 158.18 390.63 156.71C392.56 155.37 395.39 154.21 397.75 154.99C398.31 155.153 398.83 155.433 399.275 155.811C399.72 156.189 400.081 156.656 400.333 157.183C400.585 157.71 400.723 158.284 400.738 158.867C400.753 159.451 400.644 160.031 400.42 160.57C398.99 163.78 392.77 164.96 389.65 164.57C389.46 164.57 387.49 164.12 386.25 163.82C386.95 164.1 387.64 164.37 388.36 164.68C389.78 165.26 391.19 165.9 392.71 166.57L394.89 167.63C395.63 167.97 396.36 168.42 397.11 168.82C398.81 169.82 400.5 170.82 402.17 171.91C402.69 170.67 404.6 166.26 406.31 164.64C408.02 163.02 410.63 161.45 413.07 161.86C413.649 161.936 414.206 162.133 414.704 162.439C415.202 162.745 415.63 163.152 415.96 163.634C416.291 164.116 416.516 164.662 416.621 165.237C416.726 165.812 416.708 166.402 416.57 166.97C415.64 170.36 409.67 172.48 406.57 172.62C406.37 172.62 404.11 172.47 402.87 172.36C403.87 173.03 404.87 173.69 405.87 174.36C408.73 176.36 411.56 178.55 414.4 180.69C415.26 181.34 416.14 181.98 417.01 182.63C417.19 182.18 419.34 176.9 421.26 175.08C422.96 173.47 425.58 171.89 428.03 172.31C428.608 172.386 429.164 172.583 429.66 172.888C430.157 173.193 430.584 173.6 430.914 174.081C431.243 174.562 431.467 175.107 431.571 175.681C431.676 176.254 431.658 176.844 431.52 177.41C430.59 180.8 424.62 182.92 421.52 183.06C421.28 183.06 418.03 182.84 417.21 182.75C419.12 184.17 421.05 185.57 423 186.87C425.63 188.643 428.372 190.243 431.21 191.66C431.29 191.45 433.51 185.92 435.48 184.07C437.18 182.46 439.8 180.88 442.24 181.29C442.819 181.366 443.376 181.563 443.874 181.869C444.372 182.175 444.8 182.582 445.13 183.064C445.461 183.546 445.686 184.092 445.791 184.667C445.896 185.242 445.878 185.832 445.74 186.4C444.81 189.79 438.83 191.9 435.74 192.04C435.49 192.04 431.99 191.81 431.36 191.72C431.53 191.8 431.69 191.9 431.85 191.98C434.747 193.328 437.759 194.412 440.85 195.22C442.54 195.69 444.19 196.04 445.79 196.35C446.1 195.28 447.57 190.4 449.15 188.53C450.73 186.66 453.09 184.89 455.57 185.03C456.151 185.046 456.722 185.184 457.246 185.435C457.77 185.685 458.236 186.043 458.613 186.485C458.99 186.927 459.27 187.444 459.435 188.001C459.6 188.558 459.646 189.144 459.57 189.72C459.02 193.19 453.32 195.95 450.22 196.43C450.05 196.43 448.3 196.54 447.03 196.57C447.76 196.7 448.51 196.85 449.21 196.96C451.83 197.37 454.26 197.59 456.42 197.77C457.64 197.86 458.75 197.92 459.79 197.96C460.64 197.07 464.12 193.51 466.34 192.6C468.56 191.69 471.52 191.18 473.66 192.44C474.168 192.721 474.611 193.106 474.962 193.568C475.312 194.031 475.562 194.562 475.694 195.128C475.827 195.693 475.84 196.279 475.733 196.85C475.625 197.42 475.399 197.962 475.07 198.44C472.98 201.27 466.65 201.08 463.67 200.08C463.42 200 459.55 198.18 459.59 198.14L459.65 198.08C458.65 198.08 457.57 198.03 456.4 197.97C454.24 197.84 451.8 197.67 449.15 197.31C446.298 196.956 443.469 196.432 440.68 195.74C437.547 194.991 434.488 193.96 431.54 192.66H431.43C432.2 193.34 434.3 195.33 434.43 195.5C436.43 197.9 438.94 203.73 437.07 206.71C436.746 207.196 436.322 207.608 435.828 207.919C435.334 208.231 434.78 208.435 434.201 208.518C433.623 208.601 433.034 208.561 432.472 208.401C431.91 208.241 431.388 207.965 430.94 207.59C428.94 206.07 428.37 203.07 428.41 200.73C428.41 198.09 430.89 192.9 431.09 192.49C428.121 191.096 425.248 189.506 422.49 187.73C420.88 186.73 419.29 185.62 417.71 184.52C418.35 185.13 418.93 185.68 419 185.77C421 188.17 423.51 194 421.64 196.98C421.316 197.466 420.892 197.878 420.398 198.189C419.904 198.501 419.35 198.705 418.771 198.788C418.193 198.871 417.604 198.831 417.042 198.671C416.48 198.511 415.958 198.235 415.51 197.86C413.51 196.34 412.95 193.34 412.98 191C413.01 188.66 414.98 184.16 415.55 183L413.74 181.71C410.86 179.63 407.99 177.55 405.12 175.59C404.12 174.9 403.12 174.26 402.06 173.59C402.64 174.13 403.12 174.59 403.18 174.68C405.18 177.08 407.69 182.91 405.82 185.89C405.495 186.375 405.071 186.785 404.577 187.096C404.082 187.407 403.528 187.61 402.951 187.693C402.373 187.776 401.784 187.737 401.222 187.578C400.661 187.419 400.139 187.143 399.69 186.77C397.74 185.25 397.13 182.25 397.16 179.91C397.19 177.57 399 173.5 399.64 172.11C398.57 171.47 397.51 170.84 396.45 170.28C395.71 169.91 395.03 169.5 394.28 169.17L392.07 168.17C390.64 167.58 389.18 166.96 387.77 166.41L384.92 165.32C385.92 166 387.92 167.32 388.05 167.49C390.053 169.393 391.54 171.774 392.37 174.41C392.6 174.61 392.811 174.831 393 175.07C393.378 175.515 393.659 176.034 393.823 176.595C393.987 177.155 394.03 177.744 393.951 178.323C393.872 178.901 393.671 179.457 393.363 179.953C393.054 180.448 392.644 180.873 392.16 181.2C389.16 183.09 383.35 180.64 380.93 178.64C380.79 178.52 379.39 177.07 378.52 176.14C378.94 176.76 379.37 177.37 379.8 178.02C380.67 179.29 381.49 180.6 382.39 182.02C382.79 182.71 383.2 183.41 383.62 184.11C384.04 184.81 384.41 185.58 384.81 186.33C385.71 188.06 386.54 189.87 387.33 191.7C388.45 190.95 392.47 188.33 394.79 187.92C397.11 187.51 400.16 187.64 401.97 189.34C402.41 189.722 402.766 190.193 403.012 190.721C403.258 191.25 403.391 191.825 403.4 192.408C403.409 192.991 403.296 193.569 403.067 194.106C402.838 194.642 402.498 195.124 402.07 195.52C399.42 197.84 393.27 196.31 390.58 194.69C390.41 194.59 388.58 193.22 387.63 192.44C388.1 193.55 388.57 194.66 389.01 195.79C390.27 199.07 391.44 202.43 392.62 205.79L393.73 208.85C394.13 208.58 398.84 205.36 401.44 204.9C403.75 204.5 406.8 204.63 408.62 206.32C409.06 206.704 409.414 207.176 409.66 207.706C409.906 208.235 410.037 208.811 410.046 209.395C410.054 209.979 409.939 210.558 409.709 211.095C409.479 211.631 409.139 212.114 408.71 212.51C406.07 214.82 399.92 213.29 397.22 211.68C397.02 211.56 394.43 209.57 393.8 209.04C394.61 211.28 395.45 213.51 396.36 215.67C397.572 218.602 398.975 221.451 400.56 224.2C400.74 224.07 405.65 220.68 408.31 220.2C410.62 219.79 413.67 219.92 415.48 221.61C415.922 221.992 416.279 222.463 416.526 222.993C416.773 223.522 416.906 224.098 416.916 224.683C416.925 225.267 416.811 225.847 416.581 226.384C416.351 226.921 416.01 227.404 415.58 227.8C412.94 230.12 406.79 228.59 404.09 226.97C403.88 226.85 401.09 224.71 400.62 224.29C400.71 224.45 400.79 224.62 400.89 224.78C402.551 227.491 404.452 230.048 406.57 232.42C407.72 233.75 408.9 234.95 410.07 236.09C410.92 235.37 414.83 232.09 417.18 231.42C419.53 230.75 422.48 230.55 424.47 232.04C424.95 232.372 425.355 232.802 425.658 233.301C425.961 233.8 426.155 234.357 426.229 234.936C426.303 235.515 426.253 236.103 426.085 236.662C425.916 237.221 425.632 237.738 425.25 238.18C422.87 240.77 416.59 239.92 413.74 238.61C413.58 238.54 412.08 237.61 411 236.98C411.54 237.48 412.08 237.98 412.61 238.5C414.61 240.29 416.47 241.81 418.17 243.15C419.17 243.9 420.04 244.56 420.88 245.15C422.08 244.87 426.95 243.82 429.3 244.29C431.65 244.76 434.41 245.97 435.49 248.2C435.761 248.717 435.921 249.284 435.96 249.867C435.998 250.449 435.913 251.033 435.711 251.581C435.51 252.128 435.195 252.627 434.789 253.046C434.382 253.464 433.892 253.793 433.35 254.01C430.05 255.21 424.86 251.56 422.93 249.09C422.76 248.88 420.54 245.23 420.6 245.21H420.68C419.85 244.64 418.98 244.02 418.03 243.32C416.3 242.02 414.36 240.54 412.35 238.78C410.168 236.899 408.095 234.896 406.14 232.78C403.946 230.423 401.965 227.876 400.22 225.17C400.22 225.17 400.22 225.1 400.17 225.07C400.43 226.07 401.08 228.87 401.11 229.07C401.46 232.19 400.32 238.43 397.11 239.88C396.572 240.107 395.992 240.218 395.408 240.205C394.824 240.193 394.249 240.058 393.721 239.809C393.193 239.56 392.723 239.203 392.342 238.76C391.961 238.317 391.678 237.799 391.51 237.24C390.59 235 391.74 232.14 393.06 230.21Z" fill="#20BAAA"/>
<path d="M446 197C446 196.94 449.78 198.95 450 199.1C452.58 200.89 456.52 205.85 455.51 209.22C455.324 209.774 455.025 210.282 454.63 210.712C454.235 211.143 453.755 211.485 453.219 211.718C452.684 211.951 452.106 212.069 451.522 212.064C450.938 212.059 450.362 211.932 449.83 211.69C447.54 210.74 446.16 208.01 445.58 205.74C444.89 203.07 446 197 446 197Z" fill="#20BAAA"/>
<path d="M470 453.98H480" stroke="#00202D" stroke-linecap="round" stroke-linejoin="round"/>
<path d="M39 453.98H458" stroke="#00202D" stroke-linecap="round" stroke-linejoin="round"/>
<path d="M445 188C447.209 188 449 186.209 449 184C449 181.791 447.209 180 445 180C442.791 180 441 181.791 441 184C441 186.209 442.791 188 445 188Z" stroke="#737373" stroke-miterlimit="10" stroke-linecap="round"/>
<path d="M221 326C223.209 326 225 324.209 225 322C225 319.791 223.209 318 221 318C218.791 318 217 319.791 217 322C217 324.209 218.791 326 221 326Z" stroke="#737373" stroke-miterlimit="10" stroke-linecap="round"/>
<path d="M309 247C311.209 247 313 245.209 313 243C313 240.791 311.209 239 309 239C306.791 239 305 240.791 305 243C305 245.209 306.791 247 309 247Z" stroke="#737373" stroke-miterlimit="10" stroke-linecap="round"/>
<path d="M438 331C440.209 331 442 329.209 442 327C442 324.791 440.209 323 438 323C435.791 323 434 324.791 434 327C434 329.209 435.791 331 438 331Z" stroke="#737373" stroke-miterlimit="10" stroke-linecap="round"/>
<path d="M81 285C83.2091 285 85 283.209 85 281C85 278.791 83.2091 277 81 277C78.7909 277 77 278.791 77 281C77 283.209 78.7909 285 81 285Z" stroke="#737373" stroke-miterlimit="10" stroke-linecap="round"/>
<path d="M57 233C59.2091 233 61 231.209 61 229C61 226.791 59.2091 225 57 225C54.7909 225 53 226.791 53 229C53 231.209 54.7909 233 57 233Z" stroke="#737373" stroke-miterlimit="10" stroke-linecap="round"/>
<path d="M369 66C371.209 66 373 64.2091 373 62C373 59.7909 371.209 58 369 58C366.791 58 365 59.7909 365 62C365 64.2091 366.791 66 369 66Z" stroke="#737373" stroke-miterlimit="10" stroke-linecap="round"/>
<path d="M445 112C447.209 112 449 110.209 449 108C449 105.791 447.209 104 445 104C442.791 104 441 105.791 441 108C441 110.209 442.791 112 445 112Z" stroke="#737373" stroke-miterlimit="10" stroke-linecap="round"/>
<path d="M165 40C167.209 40 169 38.2091 169 36C169 33.7909 167.209 32 165 32C162.791 32 161 33.7909 161 36C161 38.2091 162.791 40 165 40Z" stroke="#737373" stroke-miterlimit="10" stroke-linecap="round"/>
<path d="M231 253C233.209 253 235 251.209 235 249C235 246.791 233.209 245 231 245C228.791 245 227 246.791 227 249C227 251.209 228.791 253 231 253Z" stroke="#737373" stroke-miterlimit="10" stroke-linecap="round"/>
<path d="M81 95C83.2091 95 85 93.2091 85 91C85 88.7909 83.2091 87 81 87C78.7909 87 77 88.7909 77 91C77 93.2091 78.7909 95 81 95Z" stroke="#737373" stroke-miterlimit="10" stroke-linecap="round"/>
<path d="M445.42 261.79L438.21 269.42" stroke="#737373" stroke-miterlimit="10" stroke-linecap="round"/>
<path d="M445.63 269.22L438 262" stroke="#737373" stroke-miterlimit="10" stroke-linecap="round"/>
<path d="M118.42 67.79L111.21 75.42" stroke="#737373" stroke-miterlimit="10" stroke-linecap="round"/>
<path d="M118.63 75.22L111 68" stroke="#737373" stroke-miterlimit="10" stroke-linecap="round"/>
<path d="M186.42 239.79L179.21 247.42" stroke="#737373" stroke-miterlimit="10" stroke-linecap="round"/>
<path d="M186.63 247.22L179 240" stroke="#737373" stroke-miterlimit="10" stroke-linecap="round"/>
<path d="M270.22 373.37L263 381" stroke="#737373" stroke-miterlimit="10" stroke-linecap="round"/>
<path d="M270.42 380.79L262.79 373.58" stroke="#737373" stroke-miterlimit="10" stroke-linecap="round"/>
<path d="M421.22 51.37L414 59" stroke="#737373" stroke-miterlimit="10" stroke-linecap="round"/>
<path d="M421.42 58.79L413.79 51.58" stroke="#737373" stroke-miterlimit="10" stroke-linecap="round"/>
<path d="M71 143L63.78 150.63" stroke="#737373" stroke-miterlimit="10" stroke-linecap="round"/>
<path d="M71.21 150.42L63.58 143.21" stroke="#737373" stroke-miterlimit="10" stroke-linecap="round"/>
<path d="M407.157 93.8818L105.741 102.196L108.829 214.153L410.245 205.839L407.157 93.8818Z" fill="#00202D" stroke="#00202D" stroke-linecap="round" stroke-linejoin="round"/>
<path d="M157.81 173.42L152.93 173.56L151.93 168L146 168.16L145.32 173.77L140.87 173.9L144.94 143L152.02 142.8L157.81 173.42ZM146.5 164L151.16 163.87L148.39 148.36L146.5 164Z" fill="#20BAAA"/>
<path d="M165.5 150.89L166.12 173.19L161.76 173.31L160.91 142.52L166.98 142.35L172.46 160.65L172 142.21L176.31 142.09L177.17 172.89L172.17 173.03L165.5 150.89Z" fill="#20BAAA"/>
<path d="M186 150.32L186.62 172.62L182.26 172.74L181.45 142L187.52 141.83L193 160.07L192.49 141.64L196.8 141.52L197.66 172.31L192.66 172.45L186 150.32Z" fill="#20BAAA"/>
<path d="M201.84 148.78C201.7 143.85 204.22 140.96 208.97 140.83C213.72 140.7 216.39 143.44 216.53 148.37L216.98 164.37C217.12 169.3 214.6 172.18 209.85 172.37C205.1 172.56 202.42 169.75 202.29 164.83L201.84 148.78ZM207.13 165C207.2 167.2 208.19 168 209.72 168C211.25 168 212.21 167.09 212.15 164.89L211.68 148.26C211.62 146.06 210.63 145.26 209.09 145.26C207.55 145.26 206.61 146.16 206.67 148.36L207.13 165Z" fill="#20BAAA"/>
<path d="M225.82 140.71L226.49 164.47C226.55 166.66 227.49 167.47 229.08 167.39C230.67 167.31 231.56 166.52 231.5 164.33L230.84 140.57L235.41 140.44L236.07 163.89C236.21 168.82 233.82 171.7 229.07 171.83C224.32 171.96 221.78 169.22 221.64 164.29L221 140.85L225.82 140.71Z" fill="#20BAAA"/>
<path d="M245 148.67L245.62 170.98L241.26 171.1L240.4 140.3L246.48 140.13L251.96 158.43L251.47 140L255.78 139.88L256.64 170.67L251.64 170.81L245 148.67Z" fill="#20BAAA"/>
<path d="M275.58 158.65L275.69 162.74C275.83 167.67 273.45 170.55 268.69 170.68C263.93 170.81 261.4 168.07 261.26 163.14L260.82 147.14C260.68 142.21 263.07 139.33 267.82 139.2C272.57 139.07 275.11 141.81 275.25 146.74L275.33 149.74L270.75 149.87L270.66 146.57C270.6 144.37 269.61 143.57 268.07 143.57C266.53 143.57 265.59 144.48 265.65 146.68L266.11 163.31C266.17 165.51 267.16 166.31 268.7 166.23C270.24 166.15 271.19 165.37 271.13 163.17L271 158.77L275.58 158.65Z" fill="#20BAAA"/>
<path d="M285 152.05L291.64 151.86L291.76 156.26L285.12 156.45L285.37 165.45L293.73 165.21L293.85 169.61L280.65 169.98L279.8 139.19L292.99 138.82L293.11 143.22L284.76 143.45L285 152.05Z" fill="#20BAAA"/>
<path d="M308.55 160.28L311.24 138.33L317.97 138.14L318.83 168.93L314.25 169.06L313.64 147L310.91 169.17L306.33 169.3L302.12 147.63L302.73 169.4L298.5 169.52L297.65 138.73L304.38 138.54L308.55 160.28Z" fill="#20BAAA"/>
<path d="M328.44 150.84L335.09 150.65L335.21 155.05L328.57 155.23L328.82 164.23L337.17 164L337.3 168.4L324.1 168.77L323.24 137.97L336.44 137.61L336.56 142.01L328.2 142.24L328.44 150.84Z" fill="#20BAAA"/>
<path d="M345.73 145.86L346.36 168.17L342 168.29L341.14 137.49L347.21 137.33L352.7 155.62L352.18 137.19L356.5 137.07L357.35 167.86L352.35 168L345.73 145.86Z" fill="#20BAAA"/>
<path d="M360.32 137L375.32 136.58L375.44 140.98L370.38 141.12L371.12 167.52L366.28 167.65L365.54 141.26L360.48 141.4L360.32 137Z" fill="#20BAAA"/>
<path d="M350 486C384.794 486 413 480.627 413 474C413 467.373 384.794 462 350 462C315.206 462 287 467.373 287 474C287 480.627 315.206 486 350 486Z" fill="#20BAAA"/>
<path opacity="0.7" d="M350 486C384.794 486 413 480.627 413 474C413 467.373 384.794 462 350 462C315.206 462 287 467.373 287 474C287 480.627 315.206 486 350 486Z" fill="white"/>
<path d="M327.98 348.34L319.57 453.09L330.78 452.81L352.35 362.35L358.79 362.07L379.23 453.94L388.48 454.77L387.36 402.4L380.63 344.7L328.54 346.66L327.98 348.34Z" fill="#00202D" stroke="#00202D" stroke-linecap="round" stroke-linejoin="round"/>
<path d="M338.68 405.32C338.52 407.01 335.38 408.09 331.68 407.74C327.98 407.39 325.07 405.74 325.23 404.04C325.39 402.34 328.54 401.28 332.23 401.63C335.92 401.98 338.84 403.64 338.68 405.32Z" fill="white" stroke="#00202D" stroke-linecap="round" stroke-linejoin="round"/>
<path d="M386.68 404.76C386.88 406.44 384.03 408.16 380.32 408.59C376.61 409.02 373.44 408.02 373.25 406.34C373.06 404.66 375.9 402.94 379.61 402.5C383.32 402.06 386.48 403.08 386.68 404.76Z" fill="white" stroke="#00202D" stroke-linecap="round" stroke-linejoin="round"/>
<path d="M320.13 456.21C320.13 456.21 318.78 460.94 316.48 463.64C314.18 466.34 309.05 471.47 309.86 474.85C310.67 478.23 314.05 477.96 317.86 476.85C321.67 475.74 325.56 472.39 326.64 471.85C327.72 471.31 329.47 470.5 329.47 468.34V456.48L320.13 456.21Z" fill="white" stroke="#00202D" stroke-linecap="round" stroke-linejoin="round"/>
<path d="M325.93 470.39C323.071 472.711 319.761 474.413 316.21 475.39C315.127 475.671 313.997 475.723 312.893 475.54C311.788 475.357 310.735 474.945 309.8 474.33C309.805 474.505 309.825 474.679 309.86 474.85C310.67 478.23 314.05 477.96 317.86 476.85C321.67 475.74 325.56 472.39 326.64 471.85C327.72 471.31 329.33 470.54 329.45 468.55C328.194 468.989 327.008 469.609 325.93 470.39Z" fill="white" stroke="#00202D" stroke-linecap="round" stroke-linejoin="round"/>
<path d="M387.69 456.21C387.69 456.21 389.04 460.94 391.34 463.64C393.64 466.34 398.77 471.47 397.96 474.85C397.15 478.23 393.77 477.96 389.96 476.85C386.15 475.74 382.26 472.39 381.18 471.85C380.1 471.31 378.35 470.5 378.35 468.34V456.48L387.69 456.21Z" fill="white" stroke="#00202D" stroke-linecap="round" stroke-linejoin="round"/>
<path d="M381.89 470.39C384.749 472.711 388.059 474.413 391.61 475.39C392.695 475.668 393.826 475.717 394.931 475.535C396.037 475.352 397.092 474.942 398.03 474.33C398.017 474.504 397.993 474.678 397.96 474.85C397.15 478.23 393.77 477.96 389.96 476.85C386.15 475.74 382.26 472.39 381.18 471.85C380.1 471.31 378.49 470.54 378.37 468.55C379.626 468.989 380.812 469.609 381.89 470.39Z" fill="white" stroke="#00202D" stroke-linecap="round" stroke-linejoin="round"/>
<path d="M317.89 449.45L318.73 457.3L331.62 457.86L333.3 448.61L317.89 449.45Z" fill="white" stroke="#00202D" stroke-linecap="round" stroke-linejoin="round"/>
<path d="M375.31 451.41L377.83 458.98L388.2 458.7L390.44 451.13L375.31 451.41Z" fill="white" stroke="#00202D" stroke-linecap="round" stroke-linejoin="round"/>
<path d="M336.8 250L334.8 241.72C334.8 241.72 332.33 240.85 331.96 239.37C331.59 237.89 333.32 235.78 333.32 235.78C333.32 235.78 328.25 233.56 328.62 231.95C328.99 230.34 337.03 225.52 337.03 225.52C337.03 225.52 327.51 223.91 330.6 221.32C333.69 218.73 344.32 217.11 348.03 218.47C350.722 219.609 353.225 221.154 355.45 223.05C355.45 223.05 352.45 219.46 355.33 219.34C358.21 219.22 363 225.77 363.12 229.97C363.24 234.17 360.89 239.74 360.89 239.74L360.77 245.31L359.18 250L356 234.75L345.61 234.38L338 240.57L339.23 251.32L337.01 250.83L336.8 250Z" fill="#00202D" stroke="#00202D" stroke-miterlimit="10"/>
<path d="M337.91 250.46C337.91 250.46 335.07 247.62 334.08 250.09C333.09 252.56 335.81 255.65 336.8 256.15C337.68 256.43 338.619 256.472 339.52 256.27L337.91 250.46Z" stroke="#00202D" stroke-miterlimit="10"/>
<path d="M359.8 247.12C359.8 247.12 360.8 243.78 362.89 245.64C364.98 247.5 363.26 250.09 362.77 251.45C362.318 252.461 361.688 253.382 360.91 254.17L359.8 247.12Z" stroke="#00202D" stroke-miterlimit="10"/>
<path d="M344.36 269L331.13 271.1L325.88 348.4C333.171 352.595 341.25 355.24 349.61 356.17C362.85 357.43 382.17 350.92 382.17 350.92L371.25 271.52C371.25 271.52 352.13 268.59 344.36 269Z" fill="white" stroke="#00202D" stroke-linecap="round" stroke-linejoin="round"/>
<path d="M355.78 348.92C355.153 349.48 354.484 349.991 353.78 350.45L355.78 348.92Z" fill="white"/>
<path d="M355.78 348.92C355.153 349.48 354.484 349.991 353.78 350.45" stroke="#00202D" stroke-linecap="round" stroke-linejoin="round"/>
<path d="M369.51 325.61C369.51 325.61 365.23 337.86 358.86 345.69L369.51 325.61Z" fill="white"/>
<path d="M369.51 325.61C369.51 325.61 365.23 337.86 358.86 345.69" stroke="#00202D" stroke-linecap="round" stroke-linejoin="round"/>
<path d="M334.17 324.89C334.17 324.89 341.57 338 348 343.76L334.17 324.89Z" fill="white"/>
<path d="M334.17 324.89C334.17 324.89 341.57 338 348 343.76" stroke="#00202D" stroke-linecap="round" stroke-linejoin="round"/>
<path d="M277.67 226.65C277.67 226.65 277.14 222.07 277.53 221.29C277.92 220.51 280.93 216.59 281.45 214.76C281.97 212.93 283.54 207.97 282.24 208.62C281.083 209.414 280.28 210.625 280 212C280 212.52 277.51 214.35 277.51 214.35C277.51 214.35 273.6 204.94 273.2 204.81C272.8 204.68 271.51 204.42 271.51 205.47C271.991 207.834 272.598 210.171 273.33 212.47L272.33 213.12L269.33 204.37C269.33 204.37 267.63 204.24 267.63 205.02C267.63 205.8 269.46 214.17 269.46 214.17L268.15 214.56L265.67 206.85C265.67 206.85 264.1 207.11 264.1 208.16C264.1 209.21 265.93 215.86 265.93 215.86C265.93 215.86 263.93 213.38 263.71 212.86C263.424 212.417 263.07 212.022 262.66 211.69C262.376 211.759 262.127 211.929 261.959 212.168C261.792 212.407 261.717 212.7 261.75 212.99C261.88 214.04 265.41 219.52 266.19 220.99C266.968 222.356 267.84 223.666 268.8 224.91C269.37 226.075 269.809 227.299 270.11 228.56L277.67 226.65Z" fill="white" stroke="#00202D" stroke-linecap="round" stroke-linejoin="round"/>
<path d="M277.53 214.37C277.53 214.37 273.22 216.37 273.22 217.63V220.77" fill="white"/>
<path d="M277.53 214.37C277.53 214.37 273.22 216.37 273.22 217.63V220.77" stroke="#00202D" stroke-linecap="round" stroke-linejoin="round"/>
<path d="M331.34 269C331.34 269 316 270.06 315 270.48L313.95 270.9L289.32 260L277.56 225.55L267.9 227.86C267.9 227.86 281.34 274.71 281.34 275.55C281.34 276.39 318.73 299.08 318.73 299.08L314.73 342.77C314.73 342.77 327.34 347.39 331.96 348.65C336.58 349.91 343.51 348.65 343.51 348.65L341 272.79L340.37 268.79L331.34 269Z" fill="#787878" stroke="#00202D" stroke-linecap="round" stroke-linejoin="round"/>
<path d="M333 273C333 273 331.32 283.29 332.79 284.13C334.26 284.97 338.46 283.08 339.3 283.5C340.14 283.92 340.35 290.22 340.35 290.22" stroke="#00202D" stroke-linecap="round" stroke-linejoin="round"/>
<path d="M316.16 286.74L315.79 284.76" stroke="#00202D" stroke-linecap="round" stroke-linejoin="round"/>
<path d="M318.31 298.21L316.61 289.13" stroke="#00202D" stroke-linecap="round" stroke-linejoin="round"/>
<path d="M318.73 299.05L312.22 286.44" stroke="#00202D" stroke-linecap="round" stroke-linejoin="round"/>
<path d="M362 273.21L368.51 349.67C372.089 349.933 375.68 349.361 379 348C385.09 345.69 395 337.92 395 337.92L383.65 296.74L395.21 313.13L403.4 304.73C403.4 304.73 388.07 276.79 383.86 272.59C379.65 268.39 361.38 268 361.38 268L362 273.21Z" fill="#787878" stroke="#00202D" stroke-linecap="round" stroke-linejoin="round"/>
<path d="M363.9 288.12L364.95 283.29C364.95 283.29 372.09 283.71 372.51 282.03C372.93 280.35 367.51 269.22 367.51 269.22" stroke="#00202D" stroke-linecap="round" stroke-linejoin="round"/>
<path d="M342.74 261C342.74 261 339.03 261.25 337.91 262.61C336.79 263.97 327.28 268.67 327.28 270.03C327.28 271.39 336.06 277.32 339.03 279.67C342 282.02 351.52 284.25 352.38 284.12C353.24 283.99 365.38 275.96 366.73 274.6C368.08 273.24 372.41 265.33 372.41 265.33C372.41 265.33 358.32 260.26 356.59 260.01C354.86 259.76 342.74 261 342.74 261Z" fill="white" stroke="#00202D" stroke-linecap="round" stroke-linejoin="round"/>
<path d="M341.5 259.61C341.5 259.61 342.86 271.98 343.23 274.2C343.6 276.42 351.14 283.35 352.23 283.1C353.32 282.85 357.79 274.32 358.29 271.85C358.79 269.38 358.66 260.97 358.66 260.97C358.66 260.97 354.58 263.97 351.98 263.97C349.38 263.97 341.5 259.61 341.5 259.61Z" fill="white" stroke="#00202D" stroke-linecap="round" stroke-linejoin="round"/>
<path d="M352.36 267.76L342.79 270.63L341.84 261.45L352.36 267.76Z" fill="#00202D" stroke="#00202D" stroke-miterlimit="10"/>
<path d="M336 240.17C336 240.17 339.4 257.54 340.34 259.62C341.28 261.7 346.63 267.94 348.89 269.07C351.15 270.2 354.56 269.64 355.12 268.88C355.68 268.12 361 258.77 361 257.26C361 255.75 358 234.13 357.46 233.57C356.92 233.01 349.72 230.92 345.57 232.06C341.42 233.2 336.17 237.91 336 240.17Z" fill="white" stroke="#00202D" stroke-miterlimit="10"/>
<path d="M344.03 248.11C344.472 248.11 344.83 247.64 344.83 247.06C344.83 246.48 344.472 246.01 344.03 246.01C343.588 246.01 343.23 246.48 343.23 247.06C343.23 247.64 343.588 248.11 344.03 248.11Z" fill="#00202D"/>
<path d="M354.79 246C354.758 246.154 354.682 246.296 354.573 246.409C354.463 246.521 354.323 246.601 354.17 246.637C354.017 246.674 353.857 246.666 353.708 246.615C353.559 246.564 353.428 246.471 353.33 246.348C353.231 246.225 353.17 246.077 353.153 245.921C353.135 245.764 353.163 245.606 353.232 245.465C353.302 245.323 353.41 245.205 353.544 245.122C353.678 245.04 353.833 244.998 353.99 245C354.219 245.047 354.425 245.172 354.571 245.355C354.717 245.538 354.795 245.766 354.79 246Z" fill="#00202D"/>
<path d="M347.06 252.68C347.339 253.027 347.7 253.3 348.11 253.474C348.52 253.649 348.966 253.719 349.41 253.68C349.929 253.66 350.433 253.5 350.869 253.219C351.305 252.938 351.658 252.544 351.89 252.08" stroke="#00202D" stroke-linecap="round" stroke-linejoin="round"/>
<path d="M340.51 243.53C340.51 243.53 341.38 241.43 344.59 241.43" stroke="#00202D" stroke-linecap="round" stroke-linejoin="round"/>
<path d="M350.77 240.81C351.509 240.505 352.319 240.413 353.107 240.546C353.896 240.679 354.631 241.03 355.23 241.56" stroke="#00202D" stroke-linecap="round" stroke-linejoin="round"/>
<path d="M343.48 255.9C343.48 255.9 347.19 258.13 350.65 257.63C352.818 257.262 354.811 256.211 356.34 254.63C356.34 254.63 354.85 259.46 353.12 261.56C351.39 263.66 349.91 263.78 347.93 262.18C345.95 260.58 343.48 255.9 343.48 255.9Z" stroke="#00202D" stroke-linecap="round" stroke-linejoin="round"/>
<path d="M367.86 273.5L365.95 274.4C365.95 274.4 367.22 279.25 367.35 279.76C367.48 280.27 370.04 280.27 370.04 280.27L370.16 275.42L367.86 273.5Z" fill="white" stroke="#00202D" stroke-linecap="round" stroke-linejoin="round"/>
<path d="M377.76 274.05L367.89 270.69L367.68 274.89L369.78 275.94L370.62 284.55H373.35C373.35 284.55 374.19 286.86 375.45 287.49C376.71 288.12 379.65 287.28 379.65 286.02C379.65 284.76 377.76 274.05 377.76 274.05Z" fill="white" stroke="#00202D" stroke-linecap="round" stroke-linejoin="round"/>
<path d="M378.81 283.92L374.4 290C374.4 290 393.1 316.68 393.73 316.89C394.36 317.1 392.89 316.47 394.99 317.1C397.09 317.73 402.34 315.63 403.99 312.27C405.64 308.91 404.83 304.27 403.99 303.03C403.15 301.79 378.81 283.92 378.81 283.92Z" fill="#787878" stroke="#00202D" stroke-linecap="round" stroke-linejoin="round"/>
<path d="M358.93 255.81C357.655 256.067 356.515 256.774 355.718 257.803C354.922 258.831 354.521 260.111 354.59 261.41C354.59 264.5 356.17 266.14 358.93 267.01L388.1 279.06V245.38L358.93 255.81Z" fill="#20BAAA" stroke="#00202D" stroke-linecap="round" stroke-linejoin="round"/>
<path d="M393.38 280.46C401.173 280.46 407.49 272.307 407.49 262.25C407.49 252.193 401.173 244.04 393.38 244.04C385.587 244.04 379.27 252.193 379.27 262.25C379.27 272.307 385.587 280.46 393.38 280.46Z" fill="#20BAAA"/>
<path opacity="0.2" d="M393.38 280.46C401.173 280.46 407.49 272.307 407.49 262.25C407.49 252.193 401.173 244.04 393.38 244.04C385.587 244.04 379.27 252.193 379.27 262.25C379.27 272.307 385.587 280.46 393.38 280.46Z" fill="#00202D"/>
<path d="M393.38 280.46C401.173 280.46 407.49 272.307 407.49 262.25C407.49 252.193 401.173 244.04 393.38 244.04C385.587 244.04 379.27 252.193 379.27 262.25C379.27 272.307 385.587 280.46 393.38 280.46Z" stroke="#00202D" stroke-linecap="round" stroke-linejoin="round"/>
<path d="M143 484C170.062 484 192 479.523 192 474C192 468.477 170.062 464 143 464C115.938 464 94 468.477 94 474C94 479.523 115.938 484 143 484Z" fill="#20BAAA"/>
<path opacity="0.7" d="M143 484C170.062 484 192 479.523 192 474C192 468.477 170.062 464 143 464C115.938 464 94 468.477 94 474C94 479.523 115.938 484 143 484Z" fill="white"/>
<path d="M153.71 278C153.71 278 162.98 283.32 167.38 284.48C171.78 285.64 191.47 290.97 192.38 294.68C193.29 298.39 191.68 302.78 186.82 302.78C181.96 302.78 160 297.89 160 297.89C160 297.89 153.94 282.6 153.71 278Z" fill="white" stroke="#00202D" stroke-linecap="round" stroke-linejoin="round"/>
<path d="M166.09 289.61L166.77 288.59" stroke="#00202D" stroke-linecap="round" stroke-linejoin="round"/>
<path d="M159.97 297.89L165.08 290.9" stroke="#00202D" stroke-linecap="round" stroke-linejoin="round"/>
<path d="M161.33 296.75L166.77 294.03" stroke="#00202D" stroke-linecap="round" stroke-linejoin="round"/>
<path d="M167.61 272.87C167.61 272.87 184.06 301.36 186.84 302.75C189.62 304.14 194.25 302.75 194.25 298.58C194.25 294.41 188.46 287.46 186.38 285.15C184.3 282.84 169.7 268.47 169.7 268.47C169.7 268.47 167.52 259.16 166.95 257.88C166.38 256.6 160.26 255.04 158.69 254.47C157.12 253.9 156.84 255.47 157.55 256.03C158.251 256.844 158.828 257.757 159.26 258.74L159.55 259.74C159.55 259.74 158.12 259.6 158.12 260.45C158.12 261.3 159.12 262.59 159.69 265.01C160.26 267.43 162.39 268.71 163.69 269.57C164.577 270.125 165.536 270.555 166.54 270.85L167.61 272.87Z" fill="white" stroke="#00202D" stroke-linecap="round" stroke-linejoin="round"/>
<path d="M166.38 269C165.501 268.131 164.992 266.956 164.96 265.72C164.96 263.72 165.1 261.31 165.1 261.31" stroke="#00202D" stroke-linecap="round" stroke-linejoin="round"/>
<path d="M159.55 259.73L161.68 262.3" stroke="#00202D" stroke-linecap="round" stroke-linejoin="round"/>
<path d="M179.66 278.33C177.661 279.946 175.349 281.13 172.87 281.81C177.94 290.3 185.09 301.88 186.87 302.75C189.65 304.14 194.28 302.75 194.28 298.58C194.28 294.41 188.49 287.46 186.41 285.15C185.55 284.23 182.74 281.4 179.66 278.33Z" fill="white" stroke="#00202D" stroke-linecap="round" stroke-linejoin="round"/>
<path d="M148.07 230.54C149.967 232.937 151.616 235.52 152.99 238.25C154.3 241.36 155.76 242.95 157.74 242.84C158.99 242.76 161.02 242.35 160.86 243.49C160.7 244.63 158.86 246.61 158.86 246.61C158.86 246.61 159.86 255.95 159.52 257.1C159.18 258.25 155.91 259.56 153.29 260.22C150.67 260.88 148.2 261.36 148.2 261.36C148.2 261.36 148.2 265.13 148.04 268.25C147.88 271.37 147.88 273 147.88 273C147.88 273 142.63 272.84 141.32 272.67C140.145 272.444 138.993 272.109 137.88 271.67L134.6 270.67C134.6 270.67 139.52 266.57 138.2 261.32C136.88 256.07 132.14 253.13 132.63 245.75C133.12 238.37 135.45 229.56 148.07 230.54Z" fill="white" stroke="#00202D" stroke-linecap="round" stroke-linejoin="round"/>
<path d="M155.45 249.07L151.68 248.9C151.68 248.9 151.84 252.35 153.48 252.67L155.12 253L155.45 249.07Z" fill="#00202D" stroke="#00202D" stroke-linecap="round" stroke-linejoin="round"/>
<path d="M151.68 242.43C151.97 243.38 151.81 244.27 151.34 244.43C150.87 244.59 150.24 243.92 149.95 242.96C149.66 242 149.81 241.12 150.29 240.96C150.77 240.8 151.39 241.48 151.68 242.43Z" fill="#00202D"/>
<path d="M147.81 240C147.799 239.718 147.85 239.437 147.958 239.176C148.067 238.915 148.232 238.682 148.44 238.491C148.649 238.301 148.896 238.158 149.166 238.073C149.435 237.988 149.72 237.963 150 238" stroke="#00202D" stroke-linecap="round" stroke-linejoin="round"/>
<path d="M147.72 232.88C145.881 236.966 144.383 241.197 143.24 245.53C142.02 250.47 145.08 256.85 145.61 259.53C146.14 262.21 148.24 265.33 142.18 269.02C136.12 272.71 127.96 271.91 122.42 268.49C116.88 265.07 113.42 258.49 113.42 258.49C113.42 258.49 122.12 255.59 121.33 251.9C120.54 248.21 115.53 242.68 118.43 236.09C121.33 229.5 131.34 227.09 131.34 227.09C131.34 227.09 129.76 219.98 137.66 219.71C145.56 219.44 151.67 224.18 147.72 232.88Z" fill="#00202D" stroke="#00202D" stroke-linecap="round" stroke-linejoin="round"/>
<path d="M136.2 316L138.76 326C138.76 326 131.29 342 136.63 357.6C141.97 373.2 145.81 389.6 145.81 389.6C145.81 389.6 139.4 404.76 138.76 414.37C138.12 423.98 137.7 438.07 137.48 441.27C137.26 444.47 136 452 136 452C136 452 128.31 457.12 128.74 459.26C129.17 461.4 136.42 467.59 137.49 470.36C138.56 473.13 142.62 476.77 144.75 477.19C146.88 477.61 148.38 478.05 147.96 476.77C147.54 475.49 146.67 474.42 146.25 472.5C145.83 470.58 142.19 452.64 142.19 450.29C142.19 447.94 152.65 415.91 154.57 410.57C156.49 405.23 160.77 393.71 161.19 391.36C161.61 389.01 165.25 367.87 165.25 352.71C165.223 343.452 163.856 334.246 161.19 325.38L161.83 311.5L136.2 316Z" fill="white" stroke="#00202D" stroke-linecap="round" stroke-linejoin="round"/>
<path d="M148 476.75C147.57 475.47 146.71 474.4 146.29 472.48C146.04 471.38 144.75 465.06 143.69 459.4C141.708 459.585 139.857 460.472 138.47 461.9C137.708 461.452 137.047 460.849 136.53 460.131C136.014 459.413 135.653 458.595 135.47 457.73C134.906 455.823 135.096 453.771 136 452C136 452 128.31 457.12 128.74 459.26C129.17 461.4 136.42 467.59 137.49 470.36C138.56 473.13 142.62 476.77 144.75 477.19C146.88 477.61 148.37 478 148 476.75Z" fill="white" stroke="#00202D" stroke-linecap="round" stroke-linejoin="round"/>
<path d="M161.18 391.34C161.61 388.99 165.24 367.85 165.24 352.69C165.213 343.432 163.846 334.226 161.18 325.36V324.54C153.84 326.62 144 326.54 138.61 326.26C137.69 328.37 131.61 343.16 136.61 357.6C141.95 373.19 145.79 389.6 145.79 389.6C145.79 389.6 139.38 404.76 138.74 414.37C138.18 422.77 137.79 434.6 137.55 439.58C139.663 440.8 142.042 441.487 144.48 441.58C147.68 431.02 153.2 414.23 154.54 410.49C156.49 405.22 160.76 393.69 161.18 391.34Z" fill="#00202D" stroke="#00202D" stroke-linecap="round" stroke-linejoin="round"/>
<path d="M152.43 275.82C152.43 275.82 150.51 273.47 144.32 271.76C141.809 271.02 139.137 271.031 136.632 271.789C134.127 272.548 131.899 274.022 130.22 276.03C127.22 279.45 122.96 292.26 124.46 298.03C125.96 303.8 133.46 317.03 133.46 317.03C138.662 318.089 143.952 318.661 149.26 318.74C157.16 318.74 163.99 314.25 163.99 314.25C163.99 314.25 163.56 298.25 163.14 292.25C162.72 286.25 154.35 277.31 152.43 275.82Z" fill="white" stroke="#00202D" stroke-linecap="round" stroke-linejoin="round"/>
<path d="M146.91 289C147.252 288.84 147.586 288.663 147.91 288.47" stroke="#00202D" stroke-linecap="round" stroke-linejoin="round"/>
<path d="M135.68 293.18C135.68 293.18 141.46 291.29 145.33 289.65" stroke="#00202D" stroke-linecap="round" stroke-linejoin="round"/>
<path d="M140.6 294.14C141.857 294.099 143.109 293.948 144.34 293.69" stroke="#00202D" stroke-linecap="round" stroke-linejoin="round"/>
<path d="M134.83 294C134.83 294 136.3 294.13 138.23 294.15" stroke="#00202D" stroke-linecap="round" stroke-linejoin="round"/>
<path d="M141.54 276.89C141.54 276.89 137.54 270.59 131.93 274.11C128.03 276.57 97.79 317.38 97.79 317.38L81.14 334.67C81.14 334.67 73.88 334.03 71.32 334.89C68.76 335.75 65.77 341.89 66.41 343C67.05 344.11 73.24 341.08 73.24 341.08C73.24 341.08 68.76 343.21 72.39 343.21C76.02 343.21 79.65 340.87 80.71 340.87C81.77 340.87 84.13 339.37 85.41 337.66C86.69 335.95 142.82 286.66 142.82 286.66" fill="white"/>
<path d="M141.54 276.89C141.54 276.89 137.54 270.59 131.93 274.11C128.03 276.57 97.79 317.38 97.79 317.38L81.14 334.67C81.14 334.67 73.88 334.03 71.32 334.89C68.76 335.75 65.77 341.89 66.41 343C67.05 344.11 73.24 341.08 73.24 341.08C73.24 341.08 68.76 343.21 72.39 343.21C76.02 343.21 79.65 340.87 80.71 340.87C81.77 340.87 84.13 339.37 85.41 337.66C86.69 335.95 142.82 286.66 142.82 286.66" stroke="#00202D" stroke-linecap="round" stroke-linejoin="round"/>
<path d="M97.34 317.85L81.14 334.67C81.14 334.67 73.88 334.03 71.32 334.89C68.76 335.75 65.77 341.89 66.41 343C67.05 344.11 73.24 341.08 73.24 341.08C73.24 341.08 68.76 343.21 72.39 343.21C76.02 343.21 79.65 340.87 80.71 340.87C81.77 340.87 84.13 339.37 85.41 337.66C85.87 337.06 92.81 330.9 101.58 323.22C99.697 321.857 98.2292 319.998 97.34 317.85Z" fill="white" stroke="#00202D" stroke-linecap="round" stroke-linejoin="round"/>
<path d="M73.24 341.08L76.02 339.58" stroke="#00202D" stroke-linecap="round" stroke-linejoin="round"/>
<path d="M67.47 343.43C67.47 343.43 70.47 338.52 73.67 337.66" stroke="#00202D" stroke-linecap="round" stroke-linejoin="round"/>
<path d="M66.83 340.23C66.83 340.23 70.25 336.6 72.6 335.95" stroke="#00202D" stroke-linecap="round" stroke-linejoin="round"/>
<path d="M139.4 328.56C139.4 328.56 131.5 332.19 128.73 345C125.96 357.81 135.35 368.49 141.97 373.4C148.59 378.31 165 394.54 165 394.54C165 394.54 155 401.8 152.61 409.27C150.22 416.74 143 436.6 143 436.6C143 436.6 135.1 439.6 135.1 440.66C135.757 444.516 136.761 448.305 138.1 451.98C139.17 454.33 143.87 460.52 144.72 460.98C145.57 461.44 146 460.98 146 459.7C146 458.42 145 448.56 145.17 446C145.34 443.44 147.95 438.1 150.51 435.11C153.07 432.12 164.81 418.45 168.44 411.62C172.07 404.79 178.27 395.82 179.55 391.55C179.86 390.55 176.55 386 176.55 386C176.55 386 159.25 348 148.15 341.8" fill="white"/>
<path d="M139.4 328.56C139.4 328.56 131.5 332.19 128.73 345C125.96 357.81 135.35 368.49 141.97 373.4C148.59 378.31 165 394.54 165 394.54C165 394.54 155 401.8 152.61 409.27C150.22 416.74 143 436.6 143 436.6C143 436.6 135.1 439.6 135.1 440.66C135.757 444.516 136.761 448.305 138.1 451.98C139.17 454.33 143.87 460.52 144.72 460.98C145.57 461.44 146 460.98 146 459.7C146 458.42 145 448.56 145.17 446C145.34 443.44 147.95 438.1 150.51 435.11C153.07 432.12 164.81 418.45 168.44 411.62C172.07 404.79 178.27 395.82 179.55 391.55C179.86 390.55 176.55 386 176.55 386C176.55 386 159.25 348 148.15 341.8" stroke="#00202D" stroke-linecap="round" stroke-linejoin="round"/>
<path d="M139.71 328.15C139.71 328.15 131.5 332.15 128.71 345C125.92 357.85 135.33 368.49 141.95 373.4C148.57 378.31 165 394.54 165 394.54C165 394.54 155 401.8 152.61 409.27C151.61 412.52 149.61 418.11 147.77 423.39C149.577 426.18 152.34 428.214 155.54 429.11C160.04 423.68 166.01 416.11 168.41 411.62C172.04 404.79 181.17 395.69 179.52 391.55C178.68 389.618 177.676 387.761 176.52 386C176.52 386 159.19 347.37 148.08 341.18" fill="#00202D"/>
<path d="M139.71 328.15C139.71 328.15 131.5 332.15 128.71 345C125.92 357.85 135.33 368.49 141.95 373.4C148.57 378.31 165 394.54 165 394.54C165 394.54 155 401.8 152.61 409.27C151.61 412.52 149.61 418.11 147.77 423.39C149.577 426.18 152.34 428.214 155.54 429.11C160.04 423.68 166.01 416.11 168.41 411.62C172.04 404.79 181.17 395.69 179.52 391.55C178.68 389.618 177.676 387.761 176.52 386C176.52 386 159.19 347.37 148.08 341.18" stroke="#00202D" stroke-linecap="round" stroke-linejoin="round"/>
<path d="M144.74 461C145.6 461.42 146.02 461 146.02 459.72C146.02 458.44 145 448.56 145.17 446C145.195 445.7 145.245 445.402 145.32 445.11C144.555 445.265 143.832 445.582 143.2 446.041C142.569 446.5 142.043 447.09 141.66 447.77C141.414 445.926 141.26 444.07 141.2 442.21C141.2 440.13 143.03 436.6 143.03 436.6C143.03 436.6 135.13 439.6 135.13 440.66C135.787 444.516 136.791 448.305 138.13 451.98C139.19 454.33 143.89 460.52 144.74 461Z" fill="white" stroke="#00202D" stroke-linecap="round" stroke-linejoin="round"/>
</svg>
